<svg width="213" height="97" viewBox="0 0 213 97" fill="none" xmlns="http://www.w3.org/2000/svg">
<g opacity="0.71">
<path fill-rule="evenodd" clip-rule="evenodd" d="M0.200879 1.64C0.200879 0.73425 0.935129 0 1.84088 0C2.74663 0 3.48088 0.73425 3.48088 1.64C3.48088 2.54575 2.74663 3.28 1.84088 3.28C0.935129 3.28 0.200879 2.54575 0.200879 1.64Z" fill="#1466CF"/>
<path fill-rule="evenodd" clip-rule="evenodd" d="M23.4795 1.64C23.4795 0.73425 24.2137 0 25.1195 0C26.0252 0 26.7595 0.73425 26.7595 1.64C26.7595 2.54575 26.0252 3.28 25.1195 3.28C24.2137 3.28 23.4795 2.54575 23.4795 1.64Z" fill="#1466CF"/>
<path fill-rule="evenodd" clip-rule="evenodd" d="M46.762 1.64C46.762 0.73425 47.4962 0 48.402 0C49.3077 0 50.042 0.73425 50.042 1.64C50.042 2.54575 49.3077 3.28 48.402 3.28C47.4962 3.28 46.762 2.54575 46.762 1.64Z" fill="#1466CF"/>
<path fill-rule="evenodd" clip-rule="evenodd" d="M70.0406 1.64C70.0406 0.73425 70.7748 0 71.6806 0C72.5863 0 73.3206 0.73425 73.3206 1.64C73.3206 2.54575 72.5863 3.28 71.6806 3.28C70.7748 3.28 70.0406 2.54575 70.0406 1.64Z" fill="#1466CF"/>
<path fill-rule="evenodd" clip-rule="evenodd" d="M93.3192 1.64C93.3192 0.73425 94.0534 0 94.9592 0C95.8649 0 96.5992 0.73425 96.5992 1.64C96.5992 2.54575 95.8649 3.28 94.9592 3.28C94.0534 3.28 93.3192 2.54575 93.3192 1.64Z" fill="#1466CF"/>
<path fill-rule="evenodd" clip-rule="evenodd" d="M116.602 1.64C116.602 0.73425 117.336 0 118.242 0C119.147 0 119.882 0.73425 119.882 1.64C119.882 2.54575 119.147 3.28 118.242 3.28C117.336 3.28 116.602 2.54575 116.602 1.64Z" fill="#1466CF"/>
<path fill-rule="evenodd" clip-rule="evenodd" d="M139.88 1.64C139.88 0.73425 140.615 0 141.52 0C142.426 0 143.16 0.73425 143.16 1.64C143.16 2.54575 142.426 3.28 141.52 3.28C140.615 3.28 139.88 2.54575 139.88 1.64Z" fill="#1466CF"/>
<path fill-rule="evenodd" clip-rule="evenodd" d="M163.163 1.64C163.163 0.73425 163.897 0 164.803 0C165.709 0 166.443 0.73425 166.443 1.64C166.443 2.54575 165.709 3.28 164.803 3.28C163.897 3.28 163.163 2.54575 163.163 1.64Z" fill="#1466CF"/>
<path fill-rule="evenodd" clip-rule="evenodd" d="M186.441 1.64C186.441 0.73425 187.176 0 188.081 0C188.987 0 189.721 0.73425 189.721 1.64C189.721 2.54575 188.987 3.28 188.081 3.28C187.176 3.28 186.441 2.54575 186.441 1.64Z" fill="#1466CF"/>
<path fill-rule="evenodd" clip-rule="evenodd" d="M209.72 1.64C209.72 0.73425 210.454 0 211.36 0C212.266 0 213 0.73425 213 1.64C213 2.54575 212.266 3.28 211.36 3.28C210.454 3.28 209.72 2.54575 209.72 1.64Z" fill="#1466CF"/>
<path fill-rule="evenodd" clip-rule="evenodd" d="M0.200879 24.9201C0.200879 24.0143 0.935129 23.2801 1.84088 23.2801C2.74663 23.2801 3.48088 24.0143 3.48088 24.9201C3.48088 25.8258 2.74663 26.5601 1.84088 26.5601C0.935129 26.5601 0.200879 25.8258 0.200879 24.9201Z" fill="#1466CF"/>
<path fill-rule="evenodd" clip-rule="evenodd" d="M23.4795 24.9201C23.4795 24.0143 24.2137 23.2801 25.1195 23.2801C26.0252 23.2801 26.7595 24.0143 26.7595 24.9201C26.7595 25.8258 26.0252 26.5601 25.1195 26.5601C24.2137 26.5601 23.4795 25.8258 23.4795 24.9201Z" fill="#1466CF"/>
<path fill-rule="evenodd" clip-rule="evenodd" d="M46.762 24.9201C46.762 24.0143 47.4962 23.2801 48.402 23.2801C49.3077 23.2801 50.042 24.0143 50.042 24.9201C50.042 25.8258 49.3077 26.5601 48.402 26.5601C47.4962 26.5601 46.762 25.8258 46.762 24.9201Z" fill="#1466CF"/>
<path fill-rule="evenodd" clip-rule="evenodd" d="M70.0406 24.9201C70.0406 24.0143 70.7748 23.2801 71.6806 23.2801C72.5863 23.2801 73.3206 24.0143 73.3206 24.9201C73.3206 25.8258 72.5863 26.5601 71.6806 26.5601C70.7748 26.5601 70.0406 25.8258 70.0406 24.9201Z" fill="#1466CF"/>
<path fill-rule="evenodd" clip-rule="evenodd" d="M93.3192 24.9201C93.3192 24.0143 94.0534 23.2801 94.9592 23.2801C95.8649 23.2801 96.5992 24.0143 96.5992 24.9201C96.5992 25.8258 95.8649 26.5601 94.9592 26.5601C94.0534 26.5601 93.3192 25.8258 93.3192 24.9201Z" fill="#1466CF"/>
<path fill-rule="evenodd" clip-rule="evenodd" d="M116.602 24.9201C116.602 24.0143 117.336 23.2801 118.242 23.2801C119.147 23.2801 119.882 24.0143 119.882 24.9201C119.882 25.8258 119.147 26.5601 118.242 26.5601C117.336 26.5601 116.602 25.8258 116.602 24.9201Z" fill="#1466CF"/>
<path fill-rule="evenodd" clip-rule="evenodd" d="M139.88 24.9201C139.88 24.0143 140.615 23.2801 141.52 23.2801C142.426 23.2801 143.16 24.0143 143.16 24.9201C143.16 25.8258 142.426 26.5601 141.52 26.5601C140.615 26.5601 139.88 25.8258 139.88 24.9201Z" fill="#1466CF"/>
<path fill-rule="evenodd" clip-rule="evenodd" d="M163.163 24.9201C163.163 24.0143 163.897 23.2801 164.803 23.2801C165.709 23.2801 166.443 24.0143 166.443 24.9201C166.443 25.8258 165.709 26.5601 164.803 26.5601C163.897 26.5601 163.163 25.8258 163.163 24.9201Z" fill="#1466CF"/>
<path fill-rule="evenodd" clip-rule="evenodd" d="M186.441 24.9201C186.441 24.0143 187.176 23.2801 188.081 23.2801C188.987 23.2801 189.721 24.0143 189.721 24.9201C189.721 25.8258 188.987 26.5601 188.081 26.5601C187.176 26.5601 186.441 25.8258 186.441 24.9201Z" fill="#1466CF"/>
<path fill-rule="evenodd" clip-rule="evenodd" d="M209.72 24.9201C209.72 24.0143 210.454 23.2801 211.36 23.2801C212.266 23.2801 213 24.0143 213 24.9201C213 25.8258 212.266 26.5601 211.36 26.5601C210.454 26.5601 209.72 25.8258 209.72 24.9201Z" fill="#1466CF"/>
<path fill-rule="evenodd" clip-rule="evenodd" d="M0.200879 48.2001C0.200879 47.2944 0.935129 46.5601 1.84088 46.5601C2.74663 46.5601 3.48088 47.2944 3.48088 48.2001C3.48088 49.1059 2.74663 49.8401 1.84088 49.8401C0.935129 49.8401 0.200879 49.1059 0.200879 48.2001Z" fill="#1466CF"/>
<path fill-rule="evenodd" clip-rule="evenodd" d="M23.4795 48.2001C23.4795 47.2944 24.2137 46.5601 25.1195 46.5601C26.0252 46.5601 26.7595 47.2944 26.7595 48.2001C26.7595 49.1059 26.0252 49.8401 25.1195 49.8401C24.2137 49.8401 23.4795 49.1059 23.4795 48.2001Z" fill="#1466CF"/>
<path fill-rule="evenodd" clip-rule="evenodd" d="M46.762 48.2001C46.762 47.2944 47.4962 46.5601 48.402 46.5601C49.3077 46.5601 50.042 47.2944 50.042 48.2001C50.042 49.1059 49.3077 49.8401 48.402 49.8401C47.4962 49.8401 46.762 49.1059 46.762 48.2001Z" fill="#1466CF"/>
<path fill-rule="evenodd" clip-rule="evenodd" d="M70.0406 48.2001C70.0406 47.2944 70.7748 46.5601 71.6806 46.5601C72.5863 46.5601 73.3206 47.2944 73.3206 48.2001C73.3206 49.1059 72.5863 49.8401 71.6806 49.8401C70.7748 49.8401 70.0406 49.1059 70.0406 48.2001Z" fill="#1466CF"/>
<path fill-rule="evenodd" clip-rule="evenodd" d="M93.3192 48.2001C93.3192 47.2944 94.0534 46.5601 94.9592 46.5601C95.8649 46.5601 96.5992 47.2944 96.5992 48.2001C96.5992 49.1059 95.8649 49.8401 94.9592 49.8401C94.0534 49.8401 93.3192 49.1059 93.3192 48.2001Z" fill="#1466CF"/>
<path fill-rule="evenodd" clip-rule="evenodd" d="M116.602 48.2001C116.602 47.2944 117.336 46.5601 118.242 46.5601C119.147 46.5601 119.882 47.2944 119.882 48.2001C119.882 49.1059 119.147 49.8401 118.242 49.8401C117.336 49.8401 116.602 49.1059 116.602 48.2001Z" fill="#1466CF"/>
<path fill-rule="evenodd" clip-rule="evenodd" d="M139.88 48.2001C139.88 47.2944 140.615 46.5601 141.52 46.5601C142.426 46.5601 143.16 47.2944 143.16 48.2001C143.16 49.1059 142.426 49.8401 141.52 49.8401C140.615 49.8401 139.88 49.1059 139.88 48.2001Z" fill="#1466CF"/>
<path fill-rule="evenodd" clip-rule="evenodd" d="M163.163 48.2001C163.163 47.2944 163.897 46.5601 164.803 46.5601C165.709 46.5601 166.443 47.2944 166.443 48.2001C166.443 49.1059 165.709 49.8401 164.803 49.8401C163.897 49.8401 163.163 49.1059 163.163 48.2001Z" fill="#1466CF"/>
<path fill-rule="evenodd" clip-rule="evenodd" d="M186.441 48.2001C186.441 47.2944 187.176 46.5601 188.081 46.5601C188.987 46.5601 189.721 47.2944 189.721 48.2001C189.721 49.1059 188.987 49.8401 188.081 49.8401C187.176 49.8401 186.441 49.1059 186.441 48.2001Z" fill="#1466CF"/>
<path fill-rule="evenodd" clip-rule="evenodd" d="M209.72 48.2001C209.72 47.2944 210.454 46.5601 211.36 46.5601C212.266 46.5601 213 47.2944 213 48.2001C213 49.1059 212.266 49.8401 211.36 49.8401C210.454 49.8401 209.72 49.1059 209.72 48.2001Z" fill="#1466CF"/>
<path fill-rule="evenodd" clip-rule="evenodd" d="M0.200879 71.4799C0.200879 70.5742 0.935129 69.8399 1.84088 69.8399C2.74663 69.8399 3.48088 70.5742 3.48088 71.4799C3.48088 72.3857 2.74663 73.1199 1.84088 73.1199C0.935129 73.1199 0.200879 72.3857 0.200879 71.4799Z" fill="#1466CF"/>
<path fill-rule="evenodd" clip-rule="evenodd" d="M23.4795 71.4799C23.4795 70.5742 24.2137 69.8399 25.1195 69.8399C26.0252 69.8399 26.7595 70.5742 26.7595 71.4799C26.7595 72.3857 26.0252 73.1199 25.1195 73.1199C24.2137 73.1199 23.4795 72.3857 23.4795 71.4799Z" fill="#1466CF"/>
<path fill-rule="evenodd" clip-rule="evenodd" d="M46.762 71.4799C46.762 70.5742 47.4962 69.8399 48.402 69.8399C49.3077 69.8399 50.042 70.5742 50.042 71.4799C50.042 72.3857 49.3077 73.1199 48.402 73.1199C47.4962 73.1199 46.762 72.3857 46.762 71.4799Z" fill="#1466CF"/>
<path fill-rule="evenodd" clip-rule="evenodd" d="M70.0406 71.4799C70.0406 70.5742 70.7748 69.8399 71.6806 69.8399C72.5863 69.8399 73.3206 70.5742 73.3206 71.4799C73.3206 72.3857 72.5863 73.1199 71.6806 73.1199C70.7748 73.1199 70.0406 72.3857 70.0406 71.4799Z" fill="#1466CF"/>
<path fill-rule="evenodd" clip-rule="evenodd" d="M93.3192 71.4799C93.3192 70.5742 94.0534 69.8399 94.9592 69.8399C95.8649 69.8399 96.5992 70.5742 96.5992 71.4799C96.5992 72.3857 95.8649 73.1199 94.9592 73.1199C94.0534 73.1199 93.3192 72.3857 93.3192 71.4799Z" fill="#1466CF"/>
<path fill-rule="evenodd" clip-rule="evenodd" d="M116.602 71.4799C116.602 70.5742 117.336 69.8399 118.242 69.8399C119.147 69.8399 119.882 70.5742 119.882 71.4799C119.882 72.3857 119.147 73.1199 118.242 73.1199C117.336 73.1199 116.602 72.3857 116.602 71.4799Z" fill="#1466CF"/>
<path fill-rule="evenodd" clip-rule="evenodd" d="M139.88 71.4799C139.88 70.5742 140.615 69.8399 141.52 69.8399C142.426 69.8399 143.16 70.5742 143.16 71.4799C143.16 72.3857 142.426 73.1199 141.52 73.1199C140.615 73.1199 139.88 72.3857 139.88 71.4799Z" fill="#1466CF"/>
<path fill-rule="evenodd" clip-rule="evenodd" d="M163.163 71.4799C163.163 70.5742 163.897 69.8399 164.803 69.8399C165.709 69.8399 166.443 70.5742 166.443 71.4799C166.443 72.3857 165.709 73.1199 164.803 73.1199C163.897 73.1199 163.163 72.3857 163.163 71.4799Z" fill="#1466CF"/>
<path fill-rule="evenodd" clip-rule="evenodd" d="M186.441 71.4799C186.441 70.5742 187.176 69.8399 188.081 69.8399C188.987 69.8399 189.721 70.5742 189.721 71.4799C189.721 72.3857 188.987 73.1199 188.081 73.1199C187.176 73.1199 186.441 72.3857 186.441 71.4799Z" fill="#1466CF"/>
<path fill-rule="evenodd" clip-rule="evenodd" d="M209.72 71.4799C209.72 70.5742 210.454 69.8399 211.36 69.8399C212.266 69.8399 213 70.5742 213 71.4799C213 72.3857 212.266 73.1199 211.36 73.1199C210.454 73.1199 209.72 72.3857 209.72 71.4799Z" fill="#1466CF"/>
<path fill-rule="evenodd" clip-rule="evenodd" d="M0.200879 94.76C0.200879 93.8542 0.935129 93.12 1.84088 93.12C2.74663 93.12 3.48088 93.8542 3.48088 94.76C3.48088 95.6657 2.74663 96.4 1.84088 96.4C0.935129 96.4 0.200879 95.6657 0.200879 94.76Z" fill="#1466CF"/>
<path fill-rule="evenodd" clip-rule="evenodd" d="M23.4795 94.76C23.4795 93.8542 24.2137 93.12 25.1195 93.12C26.0252 93.12 26.7595 93.8542 26.7595 94.76C26.7595 95.6657 26.0252 96.4 25.1195 96.4C24.2137 96.4 23.4795 95.6657 23.4795 94.76Z" fill="#1466CF"/>
<path fill-rule="evenodd" clip-rule="evenodd" d="M46.762 94.76C46.762 93.8542 47.4962 93.12 48.402 93.12C49.3077 93.12 50.042 93.8542 50.042 94.76C50.042 95.6657 49.3077 96.4 48.402 96.4C47.4962 96.4 46.762 95.6657 46.762 94.76Z" fill="#1466CF"/>
<path fill-rule="evenodd" clip-rule="evenodd" d="M70.0406 94.76C70.0406 93.8542 70.7748 93.12 71.6806 93.12C72.5863 93.12 73.3206 93.8542 73.3206 94.76C73.3206 95.6657 72.5863 96.4 71.6806 96.4C70.7748 96.4 70.0406 95.6657 70.0406 94.76Z" fill="#1466CF"/>
<path fill-rule="evenodd" clip-rule="evenodd" d="M93.3192 94.76C93.3192 93.8542 94.0534 93.12 94.9592 93.12C95.8649 93.12 96.5992 93.8542 96.5992 94.76C96.5992 95.6657 95.8649 96.4 94.9592 96.4C94.0534 96.4 93.3192 95.6657 93.3192 94.76Z" fill="#1466CF"/>
<path fill-rule="evenodd" clip-rule="evenodd" d="M116.602 94.76C116.602 93.8542 117.336 93.12 118.242 93.12C119.147 93.12 119.882 93.8542 119.882 94.76C119.882 95.6657 119.147 96.4 118.242 96.4C117.336 96.4 116.602 95.6657 116.602 94.76Z" fill="#1466CF"/>
<path fill-rule="evenodd" clip-rule="evenodd" d="M139.88 94.76C139.88 93.8542 140.615 93.12 141.52 93.12C142.426 93.12 143.16 93.8542 143.16 94.76C143.16 95.6657 142.426 96.4 141.52 96.4C140.615 96.4 139.88 95.6657 139.88 94.76Z" fill="#1466CF"/>
<path fill-rule="evenodd" clip-rule="evenodd" d="M163.163 94.76C163.163 93.8542 163.897 93.12 164.803 93.12C165.709 93.12 166.443 93.8542 166.443 94.76C166.443 95.6657 165.709 96.4 164.803 96.4C163.897 96.4 163.163 95.6657 163.163 94.76Z" fill="#1466CF"/>
<path fill-rule="evenodd" clip-rule="evenodd" d="M186.441 94.76C186.441 93.8542 187.176 93.12 188.081 93.12C188.987 93.12 189.721 93.8542 189.721 94.76C189.721 95.6657 188.987 96.4 188.081 96.4C187.176 96.4 186.441 95.6657 186.441 94.76Z" fill="#1466CF"/>
<path fill-rule="evenodd" clip-rule="evenodd" d="M209.72 94.76C209.72 93.8542 210.454 93.12 211.36 93.12C212.266 93.12 213 93.8542 213 94.76C213 95.6657 212.266 96.4 211.36 96.4C210.454 96.4 209.72 95.6657 209.72 94.76Z" fill="#1466CF"/>
</g>
</svg>
